<svg width="389" height="31" viewBox="0 0 389 31" fill="none" xmlns="http://www.w3.org/2000/svg">
<path d="M175.805 1.36247C171.04 3.61716 168.963 8.30934 171.101 11.9656C172.384 14.2203 174.706 14.7078 175.805 12.9406C176.294 12.1484 176.111 11.6 175.072 10.4422C173.423 8.67497 173.789 7.27341 176.233 6.05466C180.571 3.79997 184.969 6.2984 186.619 12.0265C187.413 14.8297 185.947 17.6328 182.831 19.1562C178.799 21.2281 173.911 20.6797 164.87 17.0234C155.095 13.1234 152.895 13.1234 145.686 16.8406L140.432 19.5218L138.599 18.425C137.561 17.8156 134.872 16.7187 132.612 16.0484C126.869 14.2812 121.615 14.5859 116.239 17.0843L112.268 18.9734L100.66 13.1234C84.9589 5.14059 77.8109 3.00778 68.6469 3.43434C63.0262 3.67809 58.6275 5.62809 45.3702 13.7328C33.9456 20.6797 32.6627 21.1672 24.6594 21.2281C17.0227 21.289 11.3409 19.7656 5.8425 16.0484C-0.511254 11.7828 -0.694535 11.6609 2.05468 14.2203C5.47593 17.2672 12.9294 21.289 17.6947 22.5078C19.7108 22.9953 23.8041 23.4218 27.1031 23.4218C34.0678 23.3609 35.5341 22.8734 49.4634 15.3172C62.9041 8.06559 64.8591 7.33434 70.7851 7.39528C78.2386 7.45622 84.4091 9.40622 96.9333 15.6828C102.859 18.6687 107.747 21.35 107.747 21.5328C107.747 21.7156 105.792 22.8125 103.409 23.9093C94.123 28.2359 90.5795 27.5047 69.5633 16.5359C61.3767 12.2703 57.9555 11.6609 54.1066 13.6109C51.113 15.1343 49.7078 17.5109 49.7078 21.1062C49.7078 29.15 60.7047 33.8421 66.142 28.0531C68.5247 25.5547 67.7305 20.9843 64.9202 20.9843C63.4539 20.9843 63.3928 22.6906 64.798 23.7265C65.7144 24.3968 65.6533 24.5797 64.4925 25.7375C61.8044 28.4187 57.2223 26.5906 56.1837 22.4468C55.695 20.5578 57.1002 18.1203 59.1162 17.389C61.3767 16.475 63.6372 17.2672 73.8398 22.2031C90.885 30.4906 96.2612 31.039 106.403 25.3109L110.74 22.8125L116.422 24.7625C120.943 26.2859 123.387 26.7125 128.519 26.8953C135.483 27.2 136.155 27.0172 146.847 22.5687C153.934 19.5828 156.194 19.6437 164.747 23.0562C173.667 26.5297 175.683 27.0781 180.448 27.0781C184.908 27.0781 189.857 25.189 192.85 22.325L194.5 20.7406L196.211 22.325C199.143 25.189 204.092 27.0781 208.552 27.0781C213.317 27.0781 215.333 26.5297 224.253 23.0562C232.806 19.6437 235.066 19.5828 242.153 22.5687C252.906 27.0781 253.517 27.2 260.481 26.8953C265.185 26.7125 268.24 26.164 271.906 25.0062L276.854 23.4218L280.52 25.5547C285.591 28.4797 289.806 29.5156 294.449 28.8453C299.887 28.114 303.125 26.8953 312.533 22.1422C324.141 16.3531 327.501 15.8047 329.762 19.2781C330.861 21.0453 330.434 23.5437 328.54 25.5547C326.768 27.5047 323.897 27.5656 322.064 25.7375C320.903 24.5797 320.842 24.3968 321.758 23.7265C323.347 22.5687 323.102 20.8625 321.453 21.1062C319.376 21.4109 318.215 24.1531 319.253 26.2859C323.225 34.2687 336.848 30.2468 336.848 21.0453C336.848 15.439 332.694 11.9656 326.951 12.6359C323.958 13.0015 322.186 13.7937 308.44 20.8625C300.192 25.0672 294.572 26.7734 290.417 26.2859C287.607 25.9203 280.031 22.9953 280.031 22.2031C280.031 21.9593 285.163 19.1562 291.517 15.9875C304.591 9.40622 310.639 7.45622 318.215 7.39528C324.141 7.33434 326.096 8.06559 339.537 15.3172C353.466 22.8734 354.932 23.3609 361.897 23.4218C365.196 23.4218 369.289 22.9953 371.305 22.5078C376.071 21.289 383.524 17.2672 386.945 14.2203C389.695 11.6609 389.511 11.7828 383.157 16.0484C377.659 19.7656 371.977 21.289 364.341 21.2281C356.337 21.1672 355.054 20.6797 343.63 13.7328C330.617 5.74997 325.913 3.67809 320.536 3.43434C311.189 2.94684 304.713 4.89684 287.973 13.3672L275.388 19.6437L270.867 17.45C266.652 15.3172 265.98 15.1953 260.848 15.1953C256.205 15.2562 254.616 15.5 251.195 16.9015L247.041 18.6078L242.459 16.3531C236.044 13.1843 233.539 13.2453 224.13 17.0234C215.089 20.6797 210.201 21.2281 206.169 19.1562C202.015 17.0843 201.159 13.489 203.664 8.85778C204.519 7.15153 207.818 5.14059 209.651 5.14059C211.545 5.14059 214.417 6.66403 214.905 7.94372C215.15 8.61403 214.783 9.52809 213.928 10.4422C212.889 11.6 212.706 12.1484 213.195 12.9406C215.15 16.0484 219.487 12.0875 218.693 7.88278C217.777 3.12966 212.584 -0.100031 206.597 0.38747C202.748 0.692156 197.982 2.88591 195.966 5.32341L194.5 7.09059L193.034 5.32341C189.368 0.996843 180.815 -0.953156 175.805 1.36247ZM131.696 16.7797C135.606 17.6328 139.882 19.6437 139.149 20.375C137.927 21.5328 132.49 22.8125 128.946 22.8125C125.281 22.8125 118.316 21.4718 116.483 20.4359C115.75 20.0703 116.117 19.6437 117.888 18.6078C121.798 16.2922 126.442 15.6828 131.696 16.7797ZM268.118 18.3031C269.829 19.2172 271.417 20.1312 271.722 20.375C272.7 21.35 263.047 22.9953 258.404 22.6297C254.25 22.3859 248.262 20.375 248.262 19.2781C248.262 18.7906 252.906 17.0234 255.594 16.475C258.954 15.8656 265.063 16.7797 268.118 18.3031Z" fill="#E85F5C"/>
</svg>
